<svg xmlns="http://www.w3.org/2000/svg" viewBox="0 0 512 512">
  <defs>
    <linearGradient id="bg" x1="0%" y1="0%" x2="100%" y2="100%">
      <stop offset="0%" style="stop-color:#6366f1"/>
      <stop offset="100%" style="stop-color:#4f46e5"/>
    </linearGradient>
  </defs>
  <!-- Background rounded square -->
  <rect width="512" height="512" rx="108" ry="108" fill="url(#bg)"/>
  <!-- Back speech bubble (slightly offset, lighter) -->
  <path d="M310 120 C390 120 430 165 430 220 C430 275 390 320 310 320 L300 320 L330 365 L270 320 L220 320 C140 320 100 275 100 220 C100 165 140 120 220 120 Z" fill="rgba(255,255,255,0.25)" transform="translate(18, 8)"/>
  <!-- Front speech bubble -->
  <path d="M300 100 C380 100 420 148 420 206 C420 264 380 312 300 312 L288 312 L320 360 L256 312 L210 312 C130 312 90 264 90 206 C90 148 130 100 210 100 Z" fill="white"/>
  <!-- Three dots in the front bubble -->
  <circle cx="210" cy="206" r="18" fill="#6366f1"/>
  <circle cx="260" cy="206" r="18" fill="#6366f1"/>
  <circle cx="310" cy="206" r="18" fill="#6366f1"/>
</svg>
